<svg xmlns="http://www.w3.org/2000/svg" xmlns:xlink="http://www.w3.org/1999/xlink" width="1080" zoomAndPan="magnify" viewBox="0 0 810 809.999993" height="1080" preserveAspectRatio="xMidYMid meet" version="1.0"><defs><clipPath id="320c450abf"><path d="M 40.5 215 L 569 215 L 569 677 L 40.5 677 Z M 40.5 215 " clip-rule="nonzero"/></clipPath><clipPath id="8d71608554"><path d="M 307 198.550781 L 555 198.550781 L 555 446 L 307 446 Z M 307 198.550781 " clip-rule="nonzero"/></clipPath><clipPath id="38c3e99ab2"><path d="M 148 226 L 690 226 L 690 809.800781 L 148 809.800781 Z M 148 226 " clip-rule="nonzero"/></clipPath><clipPath id="28297e4022"><path d="M 572 73 L 759 73 L 759 332 L 572 332 Z M 572 73 " clip-rule="nonzero"/></clipPath><clipPath id="bc94d06a6a"><path d="M 800.578125 294.910156 L 602.308594 348.949219 L 535.058594 102.199219 L 733.324219 48.164062 Z M 800.578125 294.910156 " clip-rule="nonzero"/></clipPath><clipPath id="505a966b75"><path d="M 800.578125 294.910156 L 602.308594 348.949219 L 535.058594 102.199219 L 733.324219 48.164062 Z M 800.578125 294.910156 " clip-rule="nonzero"/></clipPath></defs><g clip-path="url(#320c450abf)"><path fill="#000000" d="M 200.984375 650.734375 C 184.285156 666.671875 161.792969 676.597656 136.980469 676.957031 C 84.667969 677.734375 40.742188 634.46875 40.742188 582.15625 C 40.742188 560.867188 47.761719 541.222656 59.613281 525.398438 C 73.964844 506.226562 81.949219 482.894531 80.539062 458.976562 C 80.4375 457.28125 80.394531 455.566406 80.410156 453.855469 C 80.667969 412.289062 114.355469 377.867188 155.910156 376.71875 C 158.683594 376.644531 161.433594 376.71875 164.136719 376.917969 C 193.578125 379.207031 223.121094 372.460938 247.558594 355.875 C 291.875 325.785156 312.140625 287.945312 312.140625 287.945312 L 468.34375 215.105469 L 553.308594 307.160156 C 645.304688 634.640625 286.882812 651.355469 200.984375 650.734375 Z M 200.984375 650.734375 " fill-opacity="1" fill-rule="nonzero"/></g><path fill="#ffdcdc" d="M 232.082031 808.550781 C 149.824219 469.21875 469.078125 469.519531 469.078125 469.519531 C 769.230469 506.542969 691.863281 808.535156 691.863281 808.535156 L 232.082031 808.535156 Z M 232.082031 808.550781 " fill-opacity="1" fill-rule="nonzero"/><g clip-path="url(#8d71608554)"><path fill="#000000" d="M 554.171875 321.945312 C 554.171875 390.09375 498.921875 445.339844 430.773438 445.339844 C 362.625 445.339844 307.378906 390.09375 307.378906 321.945312 C 307.367188 253.796875 362.613281 198.550781 430.761719 198.550781 C 498.921875 198.550781 554.171875 253.796875 554.171875 321.945312 Z M 554.171875 321.945312 " fill-opacity="1" fill-rule="nonzero"/></g><path fill="#d9a0ed" d="M 691.863281 808.550781 L 450.953125 808.550781 L 477.707031 622.890625 C 479.835938 608.148438 489.011719 595.460938 502.175781 588.484375 C 551.050781 562.609375 547.394531 487.082031 547.394531 487.082031 C 565.230469 490.992188 581.152344 496.34375 595.320312 502.875 L 595.335938 502.875 C 758.269531 577.882812 691.863281 808.550781 691.863281 808.550781 Z M 378.246094 484.089844 C 378.246094 484.089844 260.359375 491.613281 223.265625 618.300781 C 216.664062 640.839844 212.695312 661.378906 210.636719 679.90625 C 201.058594 765.585938 232.082031 808.535156 232.082031 808.535156 L 390.414062 808.535156 L 401.964844 614.402344 C 402.667969 602.652344 399.1875 590.945312 391.765625 581.796875 C 360.007812 542.6875 378.246094 484.089844 378.246094 484.089844 Z M 378.246094 484.089844 " fill-opacity="1" fill-rule="nonzero"/><path fill="#ffdcdc" d="M 547.394531 491.929688 C 547.394531 539.351562 509.453125 565.613281 462.042969 565.613281 C 414.621094 565.613281 372.003906 540.472656 375.6875 491.929688 C 379.269531 444.652344 414.132812 406.074219 461.542969 406.074219 C 508.949219 406.058594 547.394531 444.507812 547.394531 491.929688 Z M 547.394531 491.929688 " fill-opacity="1" fill-rule="nonzero"/><path fill="#ffbfa8" d="M 550.414062 394.667969 C 549.367188 394.8125 548.300781 394.882812 547.265625 394.925781 C 545.898438 422.875 532.882812 448.851562 512.15625 466.785156 C 512.199219 467.691406 512.226562 468.613281 512.226562 469.535156 C 512.226562 497.25 489.761719 519.71875 462.042969 519.71875 C 440.167969 519.71875 421.582031 505.722656 414.707031 486.203125 C 389.453125 477.832031 367.949219 459.695312 355.738281 435.402344 C 354.757812 435.789062 353.765625 436.148438 352.746094 436.453125 C 329.359375 443.355469 303.4375 425.464844 296.996094 403.585938 C 293.3125 391.101562 296.21875 378.140625 303.726562 368.058594 C 309.363281 360.4375 317.621094 354.4375 327.675781 351.488281 C 330.148438 350.757812 332.636719 350.238281 335.109375 349.9375 L 335.097656 349.878906 C 335.199219 349.878906 335.3125 349.878906 335.414062 349.894531 C 339.109375 349.445312 342.777344 349.460938 346.332031 349.878906 C 383.886719 348.496094 431.019531 334.589844 451.746094 328.390625 C 458.835938 326.261719 464.476562 320.824219 466.777344 313.789062 C 474.617188 289.914062 470.90625 265.089844 469.105469 256.097656 C 479.058594 298.628906 497.414062 313.015625 515.148438 317.242188 C 521.605469 311.804688 529.777344 308.039062 538.964844 306.84375 C 549.351562 305.476562 559.332031 307.621094 567.574219 312.308594 C 578.535156 318.496094 586.417969 329.167969 588.113281 342.070312 C 591.0625 364.664062 574.609375 391.519531 550.414062 394.667969 Z M 468.328125 252.589844 C 468.558594 253.726562 468.820312 254.832031 469.078125 255.925781 C 468.675781 253.984375 468.386719 252.804688 468.328125 252.589844 Z M 468.328125 252.589844 " fill-opacity="1" fill-rule="nonzero"/><path fill="#d9a0ed" d="M 321.691406 808.550781 L 232.082031 808.550781 C 232.082031 808.550781 201.058594 765.601562 210.636719 679.917969 L 294.191406 678.351562 C 294.191406 678.351562 302.589844 753.460938 321.691406 808.550781 Z M 321.691406 808.550781 " fill-opacity="1" fill-rule="nonzero"/><path fill="#d9a0ed" d="M 294.191406 678.351562 C 267.507812 752.511719 202.855469 797.144531 149.78125 778.058594 C 96.707031 758.957031 75.304688 683.371094 101.984375 609.210938 C 108.097656 592.222656 116.195312 576.789062 125.703125 563.3125 C 140.992188 541.609375 159.90625 524.996094 179.957031 515.1875 C 179.957031 514.855469 179.929688 514.539062 179.929688 514.207031 C 179.929688 484.292969 204.179688 460.042969 234.097656 460.042969 C 264.015625 460.042969 288.265625 484.292969 288.265625 514.207031 C 288.265625 528.707031 282.554688 541.867188 273.277344 551.589844 C 290.4375 589.808594 306.171875 645.054688 294.191406 678.351562 Z M 294.191406 678.351562 " fill-opacity="1" fill-rule="nonzero"/><path fill="#ffbfa8" d="M 313.378906 427.144531 C 313.96875 431.964844 313.882812 436.640625 312.816406 440.96875 C 305.609375 470.210938 271.003906 510.613281 271.003906 510.613281 C 271.003906 510.613281 244.164062 516.410156 216.289062 481.917969 L 236.226562 452.546875 C 236.226562 452.546875 197.734375 433.257812 195.75 416.417969 C 193.765625 399.574219 191.019531 380.445312 201.617188 378.5 C 212.21875 376.558594 215.484375 406.089844 215.484375 406.089844 L 230.257812 414.042969 C 230.257812 414.042969 212.679688 391.9375 211.601562 364.910156 C 210.507812 337.882812 216.792969 313.835938 231.4375 327.800781 C 231.4375 327.800781 233.019531 312.46875 243.90625 310.726562 C 254.792969 308.972656 254.304688 329.582031 254.304688 329.582031 C 254.304688 329.582031 277.230469 290.53125 283.546875 367.007812 C 283.546875 367.007812 285.402344 369.28125 288.179688 373.121094 C 289.070312 364.824219 292.636719 355.53125 304.53125 357.960938 C 324.292969 362.003906 313.421875 427.1875 313.421875 427.1875 Z M 313.378906 427.144531 " fill-opacity="1" fill-rule="nonzero"/><path fill="#d9a0ed" d="M 691.863281 808.550781 L 604.46875 808.550781 C 697.011719 630.640625 595.320312 502.875 595.320312 502.875 L 595.335938 502.875 C 758.269531 577.882812 691.863281 808.550781 691.863281 808.550781 Z M 125.703125 563.3125 C 116.195312 576.789062 108.097656 592.222656 101.984375 609.210938 C 75.304688 683.371094 96.707031 758.957031 149.78125 778.058594 C 202.855469 797.144531 267.507812 752.511719 294.191406 678.351562 C 126.855469 778.933594 125.703125 563.3125 125.703125 563.3125 Z M 125.703125 563.3125 " fill-opacity="1" fill-rule="nonzero"/><g clip-path="url(#38c3e99ab2)"><path fill="#000000" d="M 534.078125 343.464844 C 532.265625 334.632812 537.945312 325.960938 546.777344 324.089844 C 551.078125 323.183594 555.464844 324.003906 559.148438 326.390625 C 562.828125 328.792969 565.359375 332.476562 566.265625 336.761719 C 566.425781 337.539062 565.9375 338.300781 565.160156 338.472656 C 564.367188 338.632812 563.621094 338.140625 563.449219 337.367188 C 562.699219 333.828125 560.613281 330.777344 557.578125 328.808594 C 554.542969 326.835938 550.917969 326.160156 547.382812 326.910156 C 540.058594 328.449219 535.371094 335.667969 536.910156 342.988281 C 536.925781 343.0625 536.9375 343.132812 536.9375 343.203125 C 536.9375 343.320312 537.628906 354.179688 545.195312 357.359375 C 551.550781 360.035156 555.710938 366.003906 555.765625 372.5625 L 555.765625 373.410156 C 555.765625 374.199219 555.132812 374.847656 554.34375 374.863281 C 554.34375 374.863281 554.34375 374.863281 554.328125 374.863281 C 553.539062 374.863281 552.890625 374.230469 552.890625 373.4375 L 552.890625 372.589844 C 552.847656 367.183594 549.378906 362.25 544.085938 360.019531 C 535.210938 356.265625 534.164062 344.832031 534.078125 343.464844 Z M 327.503906 370.433594 C 323.203125 371.339844 319.519531 373.871094 317.117188 377.550781 C 314.714844 381.234375 313.894531 385.621094 314.816406 389.921875 C 314.972656 390.699219 315.75 391.203125 316.527344 391.03125 C 317.304688 390.871094 317.808594 390.09375 317.636719 389.316406 C 316.886719 385.78125 317.5625 382.15625 319.535156 379.121094 C 321.503906 376.085938 324.554688 374 328.09375 373.25 C 335.414062 371.699219 342.621094 376.402344 344.171875 383.722656 C 344.1875 383.792969 344.214844 383.867188 344.230469 383.9375 C 344.273438 384.039062 348.027344 394.25 342.402344 400.21875 C 337.671875 405.242188 336.289062 412.390625 338.894531 418.402344 L 339.226562 419.179688 C 339.453125 419.722656 339.988281 420.039062 340.546875 420.039062 C 340.734375 420.039062 340.9375 419.996094 341.125 419.925781 C 341.855469 419.609375 342.1875 418.761719 341.871094 418.042969 L 341.539062 417.265625 C 339.398438 412.300781 340.5625 406.390625 344.503906 402.207031 C 351.089844 395.199219 347.421875 384.328125 346.964844 383.03125 C 345.050781 374.199219 336.332031 368.5625 327.503906 370.433594 Z M 395.96875 357.386719 C 388.761719 358.910156 384.160156 365.972656 385.683594 373.179688 C 387.207031 380.386719 394.269531 384.988281 401.476562 383.464844 C 408.683594 381.9375 413.285156 374.878906 411.761719 367.671875 C 410.234375 360.464844 403.171875 355.863281 395.96875 357.386719 Z M 468.617188 355.660156 C 470.140625 362.867188 477.203125 367.46875 484.410156 365.945312 C 491.617188 364.421875 496.21875 357.359375 494.695312 350.152344 C 493.171875 342.945312 486.109375 338.34375 478.902344 339.867188 C 471.695312 341.378906 467.09375 348.453125 468.617188 355.660156 Z M 439.691406 398.550781 C 442.640625 400.839844 446.222656 402.046875 449.890625 402.046875 C 451.042969 402.046875 452.191406 401.933594 453.34375 401.6875 L 459.253906 400.4375 C 460.03125 400.277344 460.535156 399.5 460.363281 398.726562 C 460.1875 397.949219 459.441406 397.457031 458.648438 397.617188 L 452.738281 398.867188 C 448.769531 399.703125 444.65625 398.769531 441.449219 396.28125 C 438.238281 393.792969 436.296875 390.050781 436.125 385.996094 L 435.59375 374.015625 C 435.566406 373.222656 434.875 372.632812 434.097656 372.632812 C 433.304688 372.660156 432.6875 373.339844 432.714844 374.128906 L 433.25 386.109375 C 433.464844 391.03125 435.808594 395.558594 439.691406 398.550781 Z M 476.167969 405.585938 C 475.824219 406.550781 467.351562 429.304688 436.816406 425.921875 C 436.023438 425.835938 435.320312 426.414062 435.234375 427.1875 C 435.148438 427.980469 435.707031 428.683594 436.5 428.773438 C 438.6875 429.015625 440.769531 429.132812 442.742188 429.132812 C 470.589844 429.132812 478.785156 406.78125 478.871094 406.535156 C 479.132812 405.785156 478.742188 404.96875 477.996094 404.707031 C 477.261719 404.449219 476.441406 404.835938 476.167969 405.585938 Z M 467.121094 489.152344 C 453.386719 492.058594 439.691406 491.988281 426.691406 489.398438 C 435.433594 496.847656 446.785156 501.320312 459.152344 501.320312 C 479.101562 501.320312 496.320312 489.699219 504.433594 472.855469 C 493.542969 480.566406 480.957031 486.234375 467.121094 489.152344 Z M 353.148438 439.328125 C 353.910156 439.097656 354.339844 438.308594 354.125 437.546875 C 353.894531 436.78125 353.105469 436.351562 352.34375 436.566406 C 341.828125 439.660156 330.105469 437.460938 319.316406 430.355469 C 309.277344 423.738281 301.453125 413.582031 298.390625 403.167969 C 294.96875 391.546875 297.339844 379.046875 304.90625 368.90625 C 310.746094 360.984375 321.1875 353.589844 330.292969 350.914062 C 331.054688 350.683594 331.488281 349.894531 331.269531 349.128906 C 331.039062 348.367188 330.25 347.9375 329.488281 348.152344 C 319.835938 350.984375 308.773438 358.8125 302.605469 367.183594 C 294.492188 378.054688 291.960938 391.460938 295.644531 403.976562 C 298.894531 415.019531 307.164062 425.78125 317.75 432.742188 C 325.832031 438.0625 334.449219 440.796875 342.777344 440.796875 C 346.273438 440.808594 349.769531 440.320312 353.148438 439.328125 Z M 229.191406 415.019531 C 229.550781 415.410156 230.113281 415.582031 230.628906 415.4375 C 231.507812 415.195312 252.21875 409.800781 268.472656 428.140625 C 268.761719 428.457031 269.148438 428.628906 269.550781 428.628906 C 269.898438 428.628906 270.226562 428.511719 270.5 428.269531 C 271.089844 427.734375 271.148438 426.828125 270.628906 426.238281 C 255.097656 408.707031 235.132812 411.582031 230.746094 412.476562 L 223.785156 404.910156 C 223.25 404.320312 222.332031 404.292969 221.753906 404.824219 C 221.164062 405.355469 221.136719 406.277344 221.667969 406.851562 Z M 235.421875 366.390625 C 235.421875 366.578125 235.449219 366.765625 235.519531 366.9375 L 246.914062 395 C 247.140625 395.558594 247.675781 395.890625 248.25 395.890625 C 248.421875 395.890625 248.609375 395.863281 248.796875 395.789062 C 249.53125 395.488281 249.890625 394.652344 249.585938 393.921875 L 238.3125 366.117188 C 238.453125 337.636719 232.917969 327.511719 232.671875 327.09375 C 232.285156 326.40625 231.40625 326.160156 230.714844 326.550781 C 230.027344 326.9375 229.78125 327.816406 230.171875 328.503906 C 230.214844 328.605469 235.59375 338.632812 235.421875 366.390625 Z M 255.253906 363.054688 C 255.253906 363.285156 255.296875 363.515625 255.398438 363.730469 L 268.257812 389.808594 C 268.5 390.308594 269.019531 390.613281 269.550781 390.613281 C 269.765625 390.613281 269.984375 390.570312 270.183594 390.46875 C 270.902344 390.125 271.191406 389.261719 270.832031 388.542969 L 258.132812 362.78125 C 258.433594 349.765625 255.730469 329.597656 255.699219 329.398438 C 255.601562 328.605469 254.851562 328.042969 254.089844 328.160156 C 253.296875 328.261719 252.75 328.992188 252.851562 329.769531 C 252.882812 329.972656 255.613281 350.28125 255.253906 363.054688 Z M 290.105469 400.796875 C 290.265625 400.796875 290.421875 400.765625 290.566406 400.722656 C 291.3125 400.464844 291.714844 399.644531 291.457031 398.898438 C 287.113281 386.152344 289.960938 363.6875 289.992188 363.472656 C 290.089844 362.679688 289.53125 361.960938 288.753906 361.859375 C 287.976562 361.757812 287.242188 362.304688 287.140625 363.097656 C 287.011719 364.046875 284.179688 386.441406 288.738281 399.832031 C 288.953125 400.40625 289.515625 400.796875 290.105469 400.796875 Z M 291.167969 510.066406 C 291.214844 509.273438 290.609375 508.597656 289.816406 508.542969 C 289.027344 508.484375 288.351562 509.101562 288.292969 509.894531 C 286.898438 533.582031 274.242188 545.507812 273.707031 546.011719 C 273.160156 546.515625 273.074219 547.332031 273.523438 547.921875 C 293.800781 575.308594 313.609375 620.085938 292.824219 677.847656 C 266.460938 751.132812 202.496094 795.476562 150.257812 776.691406 C 149.507812 776.417969 148.6875 776.804688 148.414062 777.554688 C 148.140625 778.300781 148.53125 779.121094 149.277344 779.394531 C 157.691406 782.414062 166.394531 783.867188 175.195312 783.867188 C 222.605469 783.867188 272.832031 741.898438 295.527344 678.828125 C 316.484375 620.558594 296.996094 575.25 276.554688 547.203125 C 279.722656 543.867188 289.917969 531.484375 291.167969 510.066406 Z M 520.816406 648.089844 C 513.507812 648.964844 508.300781 655.613281 509.179688 662.917969 C 510.054688 670.226562 516.703125 675.433594 524.007812 674.554688 C 531.316406 673.675781 536.523438 667.03125 535.644531 659.726562 C 534.753906 652.417969 528.121094 647.210938 520.816406 648.089844 Z M 512.730469 739.136719 C 505.425781 740.011719 500.21875 746.660156 501.09375 753.964844 C 501.972656 761.273438 508.617188 766.480469 515.925781 765.601562 C 523.230469 764.722656 528.4375 758.078125 527.5625 750.773438 C 526.683594 743.464844 520.039062 738.257812 512.730469 739.136719 Z M 689.429688 601.660156 C 689.246094 600.882812 688.46875 600.410156 687.707031 600.59375 C 686.8125 600.796875 665.671875 606.019531 637.074219 634.296875 C 610.839844 660.242188 573.214844 711.476562 542.921875 808.117188 C 542.675781 808.882812 543.109375 809.6875 543.871094 809.917969 C 544.015625 809.960938 544.160156 809.988281 544.304688 809.988281 C 544.921875 809.988281 545.480469 809.601562 545.667969 808.980469 C 575.714844 713.101562 612.941406 662.300781 638.875 636.566406 C 666.921875 608.738281 688.152344 603.457031 688.351562 603.398438 C 689.144531 603.214844 689.617188 602.4375 689.429688 601.660156 Z M 509.078125 629.792969 C 509.25 629.792969 509.4375 629.765625 509.609375 629.691406 C 552.054688 612.90625 569.746094 579.265625 577.113281 553.992188 C 585.066406 526.679688 582.980469 502.976562 582.964844 502.746094 C 582.894531 501.953125 582.21875 501.363281 581.398438 501.449219 C 580.605469 501.523438 580.03125 502.226562 580.101562 503.019531 C 580.132812 503.25 582.160156 526.492188 574.335938 553.289062 C 567.144531 577.914062 549.898438 610.691406 508.574219 627.03125 C 507.839844 627.320312 507.46875 628.152344 507.769531 628.902344 C 507.957031 629.449219 508.503906 629.792969 509.078125 629.792969 Z M 386.144531 624.167969 C 350.976562 602.59375 338.476562 572.273438 334.191406 550.628906 C 329.53125 527.097656 333.253906 508.414062 333.300781 508.226562 C 333.457031 507.449219 332.953125 506.6875 332.175781 506.527344 C 331.398438 506.371094 330.636719 506.875 330.480469 507.648438 C 330.320312 508.425781 326.597656 526.996094 331.34375 551.074219 C 335.730469 573.324219 348.53125 604.492188 384.632812 626.628906 C 384.863281 626.773438 385.121094 626.84375 385.382812 626.84375 C 385.871094 626.84375 386.332031 626.601562 386.605469 626.15625 C 387.035156 625.464844 386.820312 624.585938 386.144531 624.167969 Z M 477.390625 242.996094 L 463.800781 226.816406 L 448.378906 244.835938 L 469.867188 259.207031 Z M 477.390625 242.996094 " fill-opacity="1" fill-rule="nonzero"/></g><path fill="#ffdcdc" d="M 568.265625 417.136719 C 556.039062 417.136719 546.101562 407.195312 546.101562 394.96875 C 546.101562 392.984375 547.710938 391.375 549.695312 391.375 C 551.683594 391.375 553.292969 392.984375 553.292969 394.96875 C 553.292969 403.226562 560.007812 409.945312 568.265625 409.945312 C 576.523438 409.945312 583.238281 403.226562 583.238281 394.96875 C 583.238281 386.714844 576.523438 379.996094 568.265625 379.996094 C 566.28125 379.996094 564.667969 378.386719 564.667969 376.402344 C 564.667969 374.417969 566.28125 372.804688 568.265625 372.804688 C 580.492188 372.804688 590.429688 382.746094 590.429688 394.96875 C 590.429688 407.195312 580.492188 417.136719 568.265625 417.136719 Z M 344.203125 463.449219 C 349.824219 461.609375 354.398438 457.683594 357.074219 452.402344 C 359.75 447.125 360.210938 441.113281 358.367188 435.488281 C 357.75 433.605469 355.722656 432.570312 353.839844 433.1875 C 351.953125 433.804688 350.917969 435.832031 351.535156 437.71875 C 352.789062 441.515625 352.472656 445.570312 350.660156 449.152344 C 348.847656 452.71875 345.769531 455.367188 341.957031 456.617188 C 338.160156 457.871094 334.089844 457.554688 330.539062 455.742188 C 326.96875 453.929688 324.324219 450.851562 323.070312 447.039062 C 320.496094 439.183594 324.796875 430.714844 332.636719 428.152344 C 334.519531 427.535156 335.558594 425.507812 334.9375 423.621094 C 334.320312 421.738281 332.292969 420.703125 330.40625 421.320312 C 318.785156 425.132812 312.441406 437.675781 316.238281 449.28125 C 318.082031 454.90625 322.007812 459.480469 327.285156 462.15625 C 330.4375 463.753906 333.84375 464.558594 337.28125 464.558594 C 339.597656 464.570312 341.929688 464.199219 344.203125 463.449219 Z M 344.203125 463.449219 " fill-opacity="1" fill-rule="nonzero"/><g clip-path="url(#28297e4022)"><g clip-path="url(#bc94d06a6a)"><g clip-path="url(#505a966b75)"><path fill="#000000" d="M 640.78125 73.917969 L 642.207031 73.53125 C 665.441406 158.773438 680.945312 161.203125 758.566406 140.046875 L 758.957031 141.472656 C 681.332031 162.628906 669.207031 172.589844 692.433594 257.816406 L 691.007812 258.207031 C 667.777344 172.980469 652.277344 170.550781 574.667969 191.703125 L 574.28125 190.273438 C 651.886719 169.121094 664.015625 159.164062 640.78125 73.917969 Z M 587.347656 213.128906 L 587.660156 213.042969 C 592.863281 232.125 596.347656 232.675781 613.722656 227.941406 L 613.808594 228.253906 C 596.433594 232.988281 593.710938 235.230469 598.910156 254.316406 L 598.597656 254.402344 C 593.394531 235.316406 589.925781 234.761719 572.550781 239.5 L 572.464844 239.183594 C 589.839844 234.449219 592.550781 232.210938 587.347656 213.128906 Z M 639.867188 249.757812 L 640.496094 249.585938 C 650.820312 287.472656 657.714844 288.539062 692.199219 279.140625 L 692.375 279.785156 C 657.890625 289.183594 652.492188 293.601562 662.8125 331.472656 L 662.1875 331.644531 C 651.863281 293.773438 644.96875 292.707031 610.488281 302.105469 L 610.3125 301.460938 C 644.796875 292.0625 650.195312 287.644531 639.867188 249.757812 " fill-opacity="1" fill-rule="evenodd"/></g></g></g></svg>