<svg xmlns="http://www.w3.org/2000/svg" xmlns:xlink="http://www.w3.org/1999/xlink" width="1080" zoomAndPan="magnify" viewBox="0 0 810 809.999993" height="1080" preserveAspectRatio="xMidYMid meet" version="1.0"><defs><clipPath id="710522cea4"><path d="M 87.101562 3.449219 L 729.101562 3.449219 L 729.101562 806.699219 L 87.101562 806.699219 Z M 87.101562 3.449219 " clip-rule="nonzero"/></clipPath></defs><path fill="#000000" d="M 338.359375 485.160156 L 187.960938 413.726562 L 187.960938 396.460938 L 338.359375 325.027344 L 338.359375 350.089844 L 219.757812 405.09375 L 338.359375 460.09375 Z M 338.359375 485.160156 " fill-opacity="1" fill-rule="nonzero"/><path fill="#000000" d="M 628.25 413.726562 L 477.847656 485.160156 L 477.847656 460.09375 L 596.449219 405.09375 L 477.847656 350.089844 L 477.847656 325.027344 L 628.25 396.460938 Z M 628.25 413.726562 " fill-opacity="1" fill-rule="nonzero"/><path fill="#000000" d="M 466.101562 275.59375 L 372.65625 534.59375 L 350.105469 534.59375 L 443.164062 275.59375 Z M 466.101562 275.59375 " fill-opacity="1" fill-rule="nonzero"/><g clip-path="url(#710522cea4)"><path stroke-linecap="butt" transform="matrix(0.0323088, 0, 0, -0.0323096, 87.115187, 807.024123)" fill="none" stroke-linejoin="round" d="M 19859.430512 18831.718275 L 15323.735368 18831.718275 L 15323.735368 24870.696122 M 251.662117 24617.167863 L 251.662117 258.869108 L 19618.228012 258.869108 L 19618.107108 19005.573133 L 15509.926772 24617.167863 Z M 251.662117 24617.167863 " stroke="#000000" stroke-width="499.17499" stroke-opacity="1" stroke-miterlimit="4"/></g></svg>